Simulation
nRows=35
nColumns=15
endheader
time  TH_x TH_y TH_z SC_y  SC_z  SC_x  AC_y  AC_z  AC_x  GH_y  GH_z  GH_yy  EL_x  PS_y
1.4749999999999996  0.000000  0.000000  0.000000  -38.36791369241925  6.253562323447343  31.363669255682915  55.40309192573111  14.89717468825961  6.8896587162514304  -17.6263430775308  33.63130797753226  -4.652873664968088  23.56491040341127  120.000000
1.5044999999999995  0.000000  0.000000  0.000000  -38.41933603370129  6.21089879468956  31.946137107852326  55.52176224587018  14.569310556896774  6.786963956008876  -17.959772146752726  33.683572230944364  -4.266889604313473  23.61686440225158  120.000000
1.5339999999999996  0.000000  0.000000  0.000000  -38.40860194462327  6.160487561884678  32.40471148266399  55.62134334082902  14.265127933686873  6.610030567743487  -18.19041292727975  33.62917059237685  -3.902680681517056  23.628667219920967  120.000000
1.5634999999999994  0.000000  0.000000  0.000000  -38.331980554820674  6.105119175895833  32.72853392213674  55.701104470197535  13.989426427719692  6.358725958812765  -18.323259452970234  33.46119248433129  -3.561871960651712  23.607091172513275  120.000000
1.5929999999999995  0.000000  0.000000  0.000000  -38.19321625003344  6.051922198266761  32.903395354227314  55.76779406984968  13.742572209538164  6.034129741231415  -18.352100799357466  33.175244141277815  -3.2641837573636328  23.559356928543274  120.000000
1.6224999999999996  0.000000  0.000000  0.000000  -38.004305220821436  6.01208848563693  32.91085964974996  55.835429510047504  13.519994527744679  5.638779661532383  -18.258244672782595  32.770722989657095  -3.046589574582535  23.49250221058124  120.000000
1.6519999999999995  0.000000  0.000000  0.000000  -37.78372349768157  5.998290275442075  32.72885683343303  55.92183997405909  13.312212615653555  5.178312001200696  -18.010814323012085  32.25276951760509  -2.958162066389709  23.412768091586454  120.000000
1.6814999999999996  0.000000  0.000000  0.000000  -37.55268812333119  6.019818126899196  32.33511927726139  56.04195920174746  13.105475621317597  4.664466914695412  -17.56804049297798  31.633968345316003  -3.052517277700201  23.325014387303295  120.000000
1.7109999999999994  0.000000  0.000000  0.000000  -37.33029738498647  6.077173410372642  31.712456252484053  56.20056074171934  12.88348451620622  4.117585983561528  -16.881209965648313  30.935106227949454  -3.3783587413370713  23.231704507786365  120.000000
1.7404999999999995  0.000000  0.000000  0.000000  -37.12931234637614  6.160187662531917  30.854268330539853  56.38827486997361  12.629522298347585  3.5654463812473214  -15.90385110364872  30.183997518126837  -3.967880860977381  23.13136244865916  120.000000
1.7699999999999996  0.000000  0.000000  0.000000  -36.95396784196054  6.2505106114911815  29.766826098115395  56.583379315900764  12.329588034635547  3.0382893022408024  -14.60467084867671  29.411691158815778  -4.82527886806272  23.0175578571707  120.000000
1.7994999999999994  0.000000  0.000000  0.000000  -36.79976225205601  6.326742119206558  28.467477959173628  56.75681616239121  11.976558939286663  2.5638814234614182  -12.98005719030331  28.64730134409868  -5.91897951562002  22.87955601466507  120.000000
1.8289999999999995  0.000000  0.000000  0.000000  -36.65492803959495  6.369731342632847  26.982198959045387  56.878482534512095  11.57201480106944  2.163763501291713  -11.060154426706463  27.913551927976034  -7.181806806487766  22.70474171303445  120.000000
1.8584999999999994  0.000000  0.000000  0.000000  -36.50333017097406  6.366552468188136  25.344281495923866  56.92312533577203  11.124870002220465  1.850712292289965  -8.90681520011337  27.22327203414165  -8.519204184342376  22.482147180678293  120.000000
1.8879999999999995  0.000000  0.000000  0.000000  -36.32681591663968  6.312046295692182  23.59241179338785  56.87387400656091  10.648111416500088  1.6278645800457625  -6.605062670073249  26.578116652921352  -9.822727271302577  22.20586781546109  120.000000
1.9174999999999995  0.000000  0.000000  0.000000  -36.10762595660987  6.2079775505481365  21.76860425739347  56.723703678252015  10.155776643641978  1.4899517558542488  -4.250238909385934  25.969603601932796  -10.98619016760565  21.87707297914921  120.000000
1.9469999999999994  0.000000  0.000000  0.000000  -35.83073368121405  6.061857487046972  19.91594070511478  56.4747509219775  9.660855060768624  1.4263923987844644  -1.9334861423476175  25.381904744373873  -11.92160272100808  21.50361334684532  120.000000
1.9764999999999995  0.000000  0.000000  0.000000  -35.48630075328599  5.884791960805884  18.076069028955338  56.1366599842286  9.174166536206533  1.4235840189026874  0.269313621364484  24.795728135184838  -12.569650611705576  21.098282470728048  120.000000
2.0059999999999993  0.000000  0.000000  0.000000  -35.071409471541955  5.688615231232497  16.285080898771323  55.72437154299161  8.705417821116882  1.466945187625631  2.305025553926542  24.191748011203398  -12.905324581547482  20.676444949700162  120.000000
2.0354999999999994  0.000000  0.000000  0.000000  -34.5914236573303  5.483758324715949  14.57121495020446  55.25625730953506  8.263851650669125  1.5432433144778397  4.14718267738403  23.552983754226684  -12.938893081117637  20.253902951750632  120.000000
2.0649999999999995  0.000000  0.000000  0.000000  -34.06027161798703  5.277945128426122  12.956201663415241  54.752526397268845  7.856823295981694  1.6405682079151205  5.796622097544131  22.86619625444601  -12.712510284610218  19.846025039389538  120.000000
2.0944999999999996  0.000000  0.000000  0.000000  -33.49924589409794  5.076066673399438  11.45610704557954  54.23317352301628  7.489505828349324  1.748304801333681  7.278143291151264  22.122257444314467  -12.292123128837684  19.466933398424448  120.000000
2.123999999999999  0.000000  0.000000  0.000000  -32.93432660133075  4.8807612305881305  10.081164524186738  53.716138448119914  7.165544032423762  1.8577890533915964  8.633736067732467  21.316161606099026  -11.75535934629625  19.12858196871621  120.000000
2.1534999999999993  0.000000  0.000000  0.000000  -32.39186368847236  4.693587857280977  8.836186846732632  53.21595569643809  6.8870953145555385  1.9623246857831884  9.91428779302321  20.446817510445683  -11.178023437883617  18.83957812009448  120.000000
2.1829999999999994  0.000000  0.000000  0.000000  -31.893383415140633  4.516016265077687  7.721250527553078  52.743419314456744  6.6547924398976  2.05738928868686  11.170384709660663  19.516799761966112  -10.620848321391412  18.603488820012338  120.000000
2.2124999999999995  0.000000  0.000000  0.000000  -31.45135353261011  4.3499436347587475  6.732665872043848  52.30558992864354  6.467612995208432  2.140892225388511  12.444592056134285  18.532202032394945  -10.120006713408381  18.417698905329814  120.000000
2.2419999999999995  0.000000  0.000000  0.000000  -31.06679697332699  4.198019386192208  5.8639584329675465  51.90641128554884  6.322936846913797  2.213038697107933  13.766243161435472  17.501997010821395  -9.684133996924968  18.273732904542765  120.000000
2.271499999999999  0.000000  0.000000  0.000000  -30.73056192434718  4.0634576378241585  5.106971337046318  51.547677174753794  6.216873650702676  2.275816285537749  15.150533443183045  16.437049838874273  -9.29962692992667  18.159528419019242  120.000000
2.3009999999999993  0.000000  0.000000  0.000000  -30.427095317835835  3.9495077649118384  4.452805624499366  51.2297850260321  6.14474327953505  2.332330743447395  16.6019493216928  15.349068287916069  -8.942850436897443  18.063067064855  120.000000
2.3304999999999993  0.000000  0.000000  0.000000  -30.139510006446635  3.8588569343852317  3.892377692130242  50.952251370662545  6.101539232080202  2.38596560418683  18.121560922621555  14.249808535720033  -8.596493899295007  17.976104952601087  120.000000
2.3599999999999994  0.000000  0.000000  0.000000  -29.854569925075005  3.7930596857020693  3.416606947587471  50.71385883046608  6.082255799443868  2.439651731188192  19.71654087781626  13.150610896673562  -8.265926059064821  17.897301512026132  120.000000
2.3894999999999995  0.000000  0.000000  0.000000  -29.565902259632658  3.752257674173899  3.016342829789846  50.512541631429116  6.082194960497258  2.495311810900108  21.410019545267236  12.062400413422111  -7.991516193592766  17.833184898765584  120.000000
2.418999999999999  0.000000  0.000000  0.000000  -29.2742954359727  3.7350363915747318  2.6824942043550823  50.34518666335807  6.097302185936871  2.55393528845303  23.246490168636623  10.995869458655545  -7.850904065172448  17.796230951533385  120.000000
2.4484999999999992  0.000000  0.000000  0.000000  -28.98581565520357  3.738520585519283  2.406192202292575  50.207808107679455  6.124341234924564  2.6158199167139005  25.291525660417424  9.961728340589008  -7.951468437961125  17.801293598783865  120.000000
2.4779999999999993  0.000000  0.000000  0.000000  -28.708723397398415  3.7587880879832656  2.178660643521296  50.0963283569915  6.160831547415789  2.681081290868595  27.627506709691787  8.970742644715425  -8.417112684441427  17.861224293171013  120.000000
